<group>
loop_mode=no_loop
ampeg_release=0.250

<region>
sample=piano_f.A-1@A-1.wav
pitch_keycenter=21
lokey=0
hikey=22
tune=0

<region>
sample=piano_f.B-1@B-1.wav
pitch_keycenter=23
lokey=23
hikey=23
tune=0

<region>
sample=piano_f.C0@C0.wav
pitch_keycenter=24
lokey=24
hikey=25
tune=0

<region>
sample=piano_f.D0@D0.wav
pitch_keycenter=26
lokey=26
hikey=27
tune=0

<region>
sample=piano_f.E0@E0.wav
pitch_keycenter=28
lokey=28
hikey=28
tune=0

<region>
sample=piano_f.F0@F0.wav
pitch_keycenter=29
lokey=29
hikey=30
tune=0

<region>
sample=piano_f.G0@G0.wav
pitch_keycenter=31
lokey=31
hikey=32
tune=0

<region>
sample=piano_f.A0@A0.wav
pitch_keycenter=33
lokey=33
hikey=34
tune=0

<region>
sample=piano_f.B0@B0.wav
pitch_keycenter=35
lokey=35
hikey=35
tune=0

<region>
sample=piano_f.C1@C1.wav
pitch_keycenter=36
lokey=36
hikey=37
tune=0

<region>
sample=piano_f.D1@D1.wav
pitch_keycenter=38
lokey=38
hikey=39
tune=0

<region>
sample=piano_f.E1@E1.wav
pitch_keycenter=40
lokey=40
hikey=40
tune=0

<region>
sample=piano_f.F1@F1.wav
pitch_keycenter=41
lokey=41
hikey=42
tune=0

<region>
sample=piano_f.G1@G1.wav
pitch_keycenter=43
lokey=43
hikey=44
tune=0

<region>
sample=piano_f.A1@A1.wav
pitch_keycenter=45
lokey=45
hikey=46
tune=0

<region>
sample=piano_f.B1@B1.wav
pitch_keycenter=47
lokey=47
hikey=47
tune=0

<region>
sample=piano_f.C2@C2.wav
pitch_keycenter=48
lokey=48
hikey=49
tune=0

<region>
sample=piano_f.D2@D2.wav
pitch_keycenter=50
lokey=50
hikey=51
tune=0

<region>
sample=piano_f.E2@E2.wav
pitch_keycenter=52
lokey=52
hikey=52
tune=0

<region>
sample=piano_f.F2@F2.wav
pitch_keycenter=53
lokey=53
hikey=54
tune=0

<region>
sample=piano_f.G2@G2.wav
pitch_keycenter=55
lokey=55
hikey=56
tune=0

<region>
sample=piano_f.A2@A2.wav
pitch_keycenter=57
lokey=57
hikey=58
tune=0

<region>
sample=piano_f.B2@B2.wav
pitch_keycenter=59
lokey=59
hikey=59
tune=0

<region>
sample=piano_f.C3@C3.wav
pitch_keycenter=60
lokey=60
hikey=61
tune=0

<region>
sample=piano_f.D3@D3.wav
pitch_keycenter=62
lokey=62
hikey=63
tune=0

<region>
sample=piano_f.E3@E3.wav
pitch_keycenter=64
lokey=64
hikey=64
tune=0

<region>
sample=piano_f.F3@F3.wav
pitch_keycenter=65
lokey=65
hikey=66
tune=0

<region>
sample=piano_f.G3@G3.wav
pitch_keycenter=67
lokey=67
hikey=68
tune=0

<region>
sample=piano_f.A3@A3.wav
pitch_keycenter=69
lokey=69
hikey=70
tune=0

<region>
sample=piano_f.B3@B3.wav
pitch_keycenter=71
lokey=71
hikey=71
tune=0

<region>
sample=piano_f.C4@C4.wav
pitch_keycenter=72
lokey=72
hikey=73
tune=0

<region>
sample=piano_f.D4@D4.wav
pitch_keycenter=74
lokey=74
hikey=75
tune=0

<region>
sample=piano_f.E4@E4.wav
pitch_keycenter=76
lokey=76
hikey=76
tune=0

<region>
sample=piano_f.F4@F4.wav
pitch_keycenter=77
lokey=77
hikey=78
tune=0

<region>
sample=piano_f.G4@G4.wav
pitch_keycenter=79
lokey=79
hikey=80
tune=0

<region>
sample=piano_f.A4@A4.wav
pitch_keycenter=81
lokey=81
hikey=82
tune=0

<region>
sample=piano_f.B4@B4.wav
pitch_keycenter=83
lokey=83
hikey=83
tune=0

<region>
sample=piano_f.C5@C5.wav
pitch_keycenter=84
lokey=84
hikey=85
tune=0

<region>
sample=piano_f.D5@D5.wav
pitch_keycenter=86
lokey=86
hikey=87
tune=0

<region>
sample=piano_f.E5@E5.wav
pitch_keycenter=88
lokey=88
hikey=88
tune=0

<region>
sample=piano_f.F5@F5.wav
pitch_keycenter=89
lokey=89
hikey=90
tune=0

<region>
sample=piano_f.G5@G5.wav
pitch_keycenter=91
lokey=91
hikey=92
tune=0

<region>
sample=piano_f.A5@A5.wav
pitch_keycenter=93
lokey=93
hikey=94
tune=0

<region>
sample=piano_f.B5@B5.wav
pitch_keycenter=95
lokey=95
hikey=95
tune=0

<region>
sample=piano_f.C6@C6.wav
pitch_keycenter=96
lokey=96
hikey=97
tune=0

<region>
sample=piano_f.D6@D6.wav
pitch_keycenter=98
lokey=98
hikey=99
tune=0

<region>
sample=piano_f.E6@E6.wav
pitch_keycenter=100
lokey=100
hikey=100
tune=0

<region>
sample=piano_f.F6@F6.wav
pitch_keycenter=101
lokey=101
hikey=102
tune=0

<region>
sample=piano_f.G6@G6.wav
pitch_keycenter=103
lokey=103
hikey=104
tune=0

<region>
sample=piano_f.A6@A6.wav
pitch_keycenter=105
lokey=105
hikey=106
tune=0

<region>
sample=piano_f.B6@B6.wav
pitch_keycenter=107
lokey=107
hikey=107
tune=0

<region>
sample=piano_f.C7@C7.wav
pitch_keycenter=108
lokey=108
hikey=127
tune=0


